<svg width="32" height="32" viewBox="0 0 32 32" fill="none" xmlns="http://www.w3.org/2000/svg">
<g opacity="0.6">
<path d="M16 7.33405L15.2794 8.02752C15.468 8.22339 15.7281 8.33405 16 8.33405C16.2718 8.33405 16.532 8.22339 16.7205 8.02752L16 7.33405ZM12.568 24.4291C10.5471 22.836 8.33739 21.2803 6.58435 19.3063C4.86559 17.3708 3.66663 15.1125 3.66663 12.1827H1.66663C1.66663 15.7367 3.14729 18.448 5.08892 20.6343C6.99627 22.782 9.42765 24.5001 11.3299 25.9997L12.568 24.4291ZM3.66663 12.1827C3.66663 9.31486 5.28712 6.90991 7.49911 5.8988C9.64805 4.91652 12.5355 5.17666 15.2794 8.02752L16.7205 6.64059C13.4646 3.25791 9.68541 2.7004 6.66764 4.07983C3.71291 5.43044 1.66663 8.56659 1.66663 12.1827H3.66663ZM11.3299 25.9997C12.0128 26.5381 12.746 27.1123 13.489 27.5464C14.2318 27.9804 15.0794 28.3332 16 28.3332V26.3332C15.5872 26.3332 15.1014 26.1723 14.4981 25.8196C13.895 25.4672 13.2694 24.982 12.568 24.4291L11.3299 25.9997ZM20.6701 25.9997C22.5722 24.5001 25.0037 22.782 26.911 20.6343C28.8526 18.448 30.3333 15.7367 30.3333 12.1827H28.3333C28.3333 15.1125 27.1344 17.3708 25.4156 19.3063C23.6625 21.2803 21.4528 22.836 19.432 24.4291L20.6701 25.9997ZM30.3333 12.1827C30.3333 8.56659 28.287 5.43044 25.3322 4.07983C22.3145 2.7004 18.5353 3.25791 15.2794 6.64059L16.7205 8.02752C19.4644 5.17666 22.3518 4.91652 24.5008 5.8988C26.7128 6.90991 28.3333 9.31486 28.3333 12.1827H30.3333ZM19.432 24.4291C18.7305 24.982 18.1049 25.4672 17.5018 25.8196C16.8985 26.1723 16.4128 26.3332 16 26.3332V28.3332C16.9205 28.3332 17.7681 27.9804 18.5109 27.5464C19.254 27.1123 19.987 26.5381 20.6701 25.9997L19.432 24.4291Z" fill="#302F34"/>
</g>
</svg>
