<svg width="800" height="800" viewBox="0 0 800 800" fill="none" xmlns="http://www.w3.org/2000/svg">
<g opacity="0.6">
<path d="M66.667 406.797C66.667 330.516 66.667 292.376 83.9737 260.758C101.28 229.14 132.899 209.517 196.135 170.271L262.801 128.896C329.647 87.4097 363.07 66.6667 400 66.6667C436.93 66.6667 470.354 87.4097 537.2 128.896L603.867 170.271C667.104 209.517 698.72 229.14 716.027 260.758C733.334 292.376 733.334 330.516 733.334 406.797V457.5C733.334 587.527 733.334 652.543 694.28 692.937C655.23 733.333 592.374 733.333 466.667 733.333H333.334C207.626 733.333 144.772 733.333 105.719 692.937C66.667 652.543 66.667 587.527 66.667 457.5V406.797Z" stroke="#302F34" stroke-width="50"/>
<path d="M500 600H300" stroke="#302F34" stroke-width="50" stroke-linecap="round"/>
</g>
</svg>
