<svg width="32" height="32" viewBox="0 0 32 32" fill="none" xmlns="http://www.w3.org/2000/svg">
<g opacity="0.6">
<path d="M18.6666 28.3337H13.3333V30.3337H18.6666V28.3337ZM3.66663 18.6671V13.3337H1.66663V18.6671H3.66663ZM28.3333 18.0843V18.6671H30.3333V18.0843H28.3333ZM19.8549 6.14855L25.1333 10.8991L26.4712 9.41249L21.1929 4.66197L19.8549 6.14855ZM30.3333 18.0843C30.3333 15.8331 30.3534 14.4077 29.7854 13.1324L27.9585 13.946C28.3132 14.7424 28.3333 15.6564 28.3333 18.0843H30.3333ZM25.1333 10.8991C26.9378 12.5232 27.6038 13.1497 27.9585 13.946L29.7854 13.1324C29.2174 11.8569 28.1445 10.9184 26.4712 9.41249L25.1333 10.8991ZM13.373 3.66706C15.4821 3.66706 16.278 3.6825 16.9873 3.9547L17.7038 2.08746C16.5681 1.65162 15.3306 1.66706 13.373 1.66706V3.66706ZM21.1929 4.66197C19.7449 3.35877 18.8396 2.52325 17.7038 2.08746L16.9873 3.9547C17.6969 4.22697 18.2953 4.74487 19.8549 6.14855L21.1929 4.66197ZM13.3333 28.3337C10.7909 28.3337 8.98464 28.3316 7.61443 28.1473C6.27297 27.9671 5.50011 27.6288 4.93583 27.0645L3.52161 28.4788C4.51944 29.4765 5.78469 29.9193 7.34793 30.1296C8.88239 30.3359 10.8474 30.3337 13.3333 30.3337V28.3337ZM1.66663 18.6671C1.66663 21.1529 1.66451 23.118 1.8708 24.6524C2.08097 26.2156 2.5238 27.4809 3.52161 28.4788L4.93583 27.0645C4.37155 26.5003 4.03332 25.7273 3.85297 24.386C3.66875 23.0157 3.66663 21.2095 3.66663 18.6671H1.66663ZM18.6666 30.3337C21.1525 30.3337 23.1176 30.3359 24.652 30.1296C26.2152 29.9193 27.4805 29.4765 28.4784 28.4788L27.0641 27.0645C26.4998 27.6288 25.7269 27.9671 24.3856 28.1473C23.0153 28.3316 21.209 28.3337 18.6666 28.3337V30.3337ZM28.3333 18.6671C28.3333 21.2095 28.3312 23.0157 28.1469 24.386C27.9666 25.7273 27.6284 26.5003 27.0641 27.0645L28.4784 28.4788C29.4761 27.4809 29.9189 26.2156 30.1292 24.6524C30.3354 23.118 30.3333 21.1529 30.3333 18.6671H28.3333ZM3.66663 13.3337C3.66663 10.7913 3.66875 8.98507 3.85297 7.61486C4.03332 6.27341 4.37155 5.50054 4.93583 4.93626L3.52161 3.52205C2.5238 4.51987 2.08097 5.78513 1.8708 7.34837C1.66451 8.88282 1.66663 10.8478 1.66663 13.3337H3.66663ZM13.373 1.66706C10.8738 1.66706 8.89919 1.66495 7.35845 1.87115C5.78972 2.08111 4.52021 2.52346 3.52161 3.52205L4.93583 4.93626C5.49933 4.37277 6.27457 4.03406 7.62376 3.85349C9.00096 3.66917 10.8174 3.66706 13.373 3.66706V1.66706Z" fill="#302F34"/>
<path d="M8 19.333H18.6667" stroke="#302F34" stroke-width="2" stroke-linecap="round"/>
<path d="M8 24H15.3333" stroke="#302F34" stroke-width="2" stroke-linecap="round"/>
<path d="M17.3334 3.33301V6.66634C17.3334 9.80903 17.3334 11.3804 18.3096 12.3567C19.286 13.333 20.8574 13.333 24 13.333H29.3334" stroke="#302F34" stroke-width="2"/>
</g>
</svg>
