<svg width="32" height="32" viewBox="0 0 32 32" fill="none" xmlns="http://www.w3.org/2000/svg">
<g opacity="0.6">
<path d="M16 20C18.2091 20 20 18.2091 20 16C20 13.7909 18.2091 12 16 12C13.7909 12 12 13.7909 12 16C12 18.2091 13.7909 20 16 20Z" stroke="#302F34" stroke-width="2"/>
<path d="M18.3539 2.86998C17.8638 2.66699 17.2426 2.66699 16 2.66699C14.7575 2.66699 14.1363 2.66699 13.6462 2.86998C12.9928 3.14063 12.4737 3.65977 12.203 4.31317C12.0795 4.61145 12.0311 4.95833 12.0122 5.46431C11.9844 6.2079 11.603 6.89618 10.9586 7.26823C10.3142 7.64027 9.52749 7.62638 8.86962 7.27867C8.42197 7.04206 8.09738 6.91049 7.77729 6.86835C7.07609 6.77603 6.36694 6.96605 5.80585 7.39659C5.38502 7.7195 5.0744 8.25753 4.45314 9.33356C3.83189 10.4096 3.52126 10.9476 3.45202 11.4735C3.35972 12.1747 3.54973 12.8839 3.98028 13.445C4.17678 13.7011 4.45297 13.9163 4.88162 14.1857C5.51177 14.5817 5.91722 15.2562 5.91718 16.0003C5.91714 16.7445 5.5117 17.4189 4.88161 17.8147C4.4529 18.0842 4.17668 18.2995 3.98014 18.5557C3.5496 19.1167 3.35958 19.8258 3.4519 20.527C3.52113 21.0529 3.83176 21.591 4.45301 22.667C5.07428 23.743 5.3849 24.2811 5.80572 24.6039C6.36681 25.0345 7.07596 25.2245 7.77716 25.1322C8.09722 25.0901 8.4218 24.9585 8.86942 24.7219C9.52733 24.3742 10.3141 24.3603 10.9586 24.7323C11.603 25.1045 11.9844 25.7927 12.0122 26.5365C12.0311 27.0423 12.0795 27.3893 12.203 27.6875C12.4737 28.3409 12.9928 28.8601 13.6462 29.1307C14.1363 29.3337 14.7575 29.3337 16 29.3337C17.2426 29.3337 17.8638 29.3337 18.3539 29.1307C19.0072 28.8601 19.5264 28.3409 19.797 27.6875C19.9206 27.3893 19.969 27.0423 19.9879 26.5363C20.0156 25.7927 20.397 25.1045 21.0414 24.7323C21.6858 24.3602 22.4726 24.3742 23.1306 24.7219C23.5782 24.9585 23.9027 25.0899 24.2227 25.1321C24.9239 25.2245 25.6331 25.0345 26.1942 24.6039C26.615 24.281 26.9256 23.743 27.5468 22.6669C28.1682 21.5909 28.4788 21.0529 28.548 20.527C28.6403 19.8258 28.4503 19.1166 28.0198 18.5555C27.8232 18.2994 27.547 18.0841 27.1183 17.8147C26.4883 17.4189 26.0828 16.7443 26.0828 16.0002C26.0828 15.2561 26.4883 14.5818 27.1183 14.1859C27.5471 13.9165 27.8234 13.7013 28.0199 13.445C28.4504 12.884 28.6404 12.1748 28.5482 11.4736C28.479 10.9477 28.1683 10.4097 27.547 9.33366C26.9258 8.25762 26.6151 7.71959 26.1943 7.39669C25.6332 6.96614 24.924 6.77613 24.2228 6.86845C23.9028 6.91058 23.5783 7.04214 23.1306 7.27873C22.4727 7.62644 21.6859 7.64035 21.0415 7.26827C20.397 6.89621 20.0156 6.20787 19.9879 5.46425C19.969 4.9583 19.9206 4.61143 19.797 4.31317C19.5264 3.65977 19.0072 3.14063 18.3539 2.86998Z" stroke="#302F34" stroke-width="2"/>
</g>
</svg>
