<svg width="440" height="956" viewBox="0 0 440 956" fill="none" xmlns="http://www.w3.org/2000/svg">
<g opacity="0.02">
<g clip-path="url(#clip0_75_971)">
<rect width="440" height="456" transform="translate(0 500)" fill="white"/>
<g clip-path="url(#clip1_75_971)">
<path d="M0 525H50" stroke="#526077" stroke-width="6" stroke-linecap="round"/>
<path d="M50 575H100" stroke="#526077" stroke-width="6" stroke-linecap="round"/>
<path d="M50 500V600" stroke="#526077" stroke-width="6" stroke-linecap="round"/>
</g>
<g clip-path="url(#clip2_75_971)">
<path d="M100 525H150" stroke="#526077" stroke-width="6" stroke-linecap="round"/>
<path d="M150 575H200" stroke="#526077" stroke-width="6" stroke-linecap="round"/>
<path d="M150 500V600" stroke="#526077" stroke-width="6" stroke-linecap="round"/>
</g>
<g clip-path="url(#clip3_75_971)">
<path d="M200 525H250" stroke="#526077" stroke-width="6" stroke-linecap="round"/>
<path d="M250 575H300" stroke="#526077" stroke-width="6" stroke-linecap="round"/>
<path d="M250 500V600" stroke="#526077" stroke-width="6" stroke-linecap="round"/>
</g>
<g clip-path="url(#clip4_75_971)">
<path d="M300 525H350" stroke="#526077" stroke-width="6" stroke-linecap="round"/>
<path d="M350 575H400" stroke="#526077" stroke-width="6" stroke-linecap="round"/>
<path d="M350 500V600" stroke="#526077" stroke-width="6" stroke-linecap="round"/>
</g>
<g clip-path="url(#clip5_75_971)">
<path d="M400 525H450" stroke="#526077" stroke-width="6" stroke-linecap="round"/>
</g>
<g clip-path="url(#clip6_75_971)">
<path d="M0 625H50" stroke="#526077" stroke-width="6" stroke-linecap="round"/>
<path d="M50 675H100" stroke="#526077" stroke-width="6" stroke-linecap="round"/>
<path d="M50 600V700" stroke="#526077" stroke-width="6" stroke-linecap="round"/>
</g>
<g clip-path="url(#clip7_75_971)">
<path d="M100 625H150" stroke="#526077" stroke-width="6" stroke-linecap="round"/>
<path d="M150 675H200" stroke="#526077" stroke-width="6" stroke-linecap="round"/>
<path d="M150 600V700" stroke="#526077" stroke-width="6" stroke-linecap="round"/>
</g>
<g clip-path="url(#clip8_75_971)">
<path d="M200 625H250" stroke="#526077" stroke-width="6" stroke-linecap="round"/>
<path d="M250 675H300" stroke="#526077" stroke-width="6" stroke-linecap="round"/>
<path d="M250 600V700" stroke="#526077" stroke-width="6" stroke-linecap="round"/>
</g>
<g clip-path="url(#clip9_75_971)">
<path d="M300 625H350" stroke="#526077" stroke-width="6" stroke-linecap="round"/>
<path d="M350 675H400" stroke="#526077" stroke-width="6" stroke-linecap="round"/>
<path d="M350 600V700" stroke="#526077" stroke-width="6" stroke-linecap="round"/>
</g>
<g clip-path="url(#clip10_75_971)">
<path d="M400 625H450" stroke="#526077" stroke-width="6" stroke-linecap="round"/>
</g>
<g clip-path="url(#clip11_75_971)">
<path d="M0 725H50" stroke="#526077" stroke-width="6" stroke-linecap="round"/>
<path d="M50 775H100" stroke="#526077" stroke-width="6" stroke-linecap="round"/>
<path d="M50 700V800" stroke="#526077" stroke-width="6" stroke-linecap="round"/>
</g>
<g clip-path="url(#clip12_75_971)">
<path d="M100 725H150" stroke="#526077" stroke-width="6" stroke-linecap="round"/>
<path d="M150 775H200" stroke="#526077" stroke-width="6" stroke-linecap="round"/>
<path d="M150 700V800" stroke="#526077" stroke-width="6" stroke-linecap="round"/>
</g>
<g clip-path="url(#clip13_75_971)">
<path d="M200 725H250" stroke="#526077" stroke-width="6" stroke-linecap="round"/>
<path d="M250 775H300" stroke="#526077" stroke-width="6" stroke-linecap="round"/>
<path d="M250 700V800" stroke="#526077" stroke-width="6" stroke-linecap="round"/>
</g>
<g clip-path="url(#clip14_75_971)">
<path d="M300 725H350" stroke="#526077" stroke-width="6" stroke-linecap="round"/>
<path d="M350 775H400" stroke="#526077" stroke-width="6" stroke-linecap="round"/>
<path d="M350 700V800" stroke="#526077" stroke-width="6" stroke-linecap="round"/>
</g>
<g clip-path="url(#clip15_75_971)">
<path d="M400 725H450" stroke="#526077" stroke-width="6" stroke-linecap="round"/>
</g>
<g clip-path="url(#clip16_75_971)">
<path d="M0 825H50" stroke="#526077" stroke-width="6" stroke-linecap="round"/>
<path d="M50 875H100" stroke="#526077" stroke-width="6" stroke-linecap="round"/>
<path d="M50 800V900" stroke="#526077" stroke-width="6" stroke-linecap="round"/>
</g>
<g clip-path="url(#clip17_75_971)">
<path d="M100 825H150" stroke="#526077" stroke-width="6" stroke-linecap="round"/>
<path d="M150 875H200" stroke="#526077" stroke-width="6" stroke-linecap="round"/>
<path d="M150 800V900" stroke="#526077" stroke-width="6" stroke-linecap="round"/>
</g>
<g clip-path="url(#clip18_75_971)">
<path d="M200 825H250" stroke="#526077" stroke-width="6" stroke-linecap="round"/>
<path d="M250 875H300" stroke="#526077" stroke-width="6" stroke-linecap="round"/>
<path d="M250 800V900" stroke="#526077" stroke-width="6" stroke-linecap="round"/>
</g>
<g clip-path="url(#clip19_75_971)">
<path d="M300 825H350" stroke="#526077" stroke-width="6" stroke-linecap="round"/>
<path d="M350 875H400" stroke="#526077" stroke-width="6" stroke-linecap="round"/>
<path d="M350 800V900" stroke="#526077" stroke-width="6" stroke-linecap="round"/>
</g>
<g clip-path="url(#clip20_75_971)">
<path d="M400 825H450" stroke="#526077" stroke-width="6" stroke-linecap="round"/>
</g>
<g clip-path="url(#clip21_75_971)">
<path d="M0 925H50" stroke="#526077" stroke-width="6" stroke-linecap="round"/>
<path d="M50 900V1000" stroke="#526077" stroke-width="6" stroke-linecap="round"/>
</g>
<g clip-path="url(#clip22_75_971)">
<path d="M100 925H150" stroke="#526077" stroke-width="6" stroke-linecap="round"/>
<path d="M150 900V1000" stroke="#526077" stroke-width="6" stroke-linecap="round"/>
</g>
<g clip-path="url(#clip23_75_971)">
<path d="M200 925H250" stroke="#526077" stroke-width="6" stroke-linecap="round"/>
<path d="M250 900V1000" stroke="#526077" stroke-width="6" stroke-linecap="round"/>
</g>
<g clip-path="url(#clip24_75_971)">
<path d="M300 925H350" stroke="#526077" stroke-width="6" stroke-linecap="round"/>
<path d="M350 900V1000" stroke="#526077" stroke-width="6" stroke-linecap="round"/>
</g>
<g clip-path="url(#clip25_75_971)">
<path d="M400 925H450" stroke="#526077" stroke-width="6" stroke-linecap="round"/>
</g>
</g>
<g clip-path="url(#clip26_75_971)">
<rect width="440" height="500" fill="white"/>
<g clip-path="url(#clip27_75_971)">
<path d="M0 25H50" stroke="#526077" stroke-width="6" stroke-linecap="round"/>
<path d="M50 75H100" stroke="#526077" stroke-width="6" stroke-linecap="round"/>
<path d="M50 0V100" stroke="#526077" stroke-width="6" stroke-linecap="round"/>
</g>
<g clip-path="url(#clip28_75_971)">
<path d="M100 25H150" stroke="#526077" stroke-width="6" stroke-linecap="round"/>
<path d="M150 75H200" stroke="#526077" stroke-width="6" stroke-linecap="round"/>
<path d="M150 0V100" stroke="#526077" stroke-width="6" stroke-linecap="round"/>
</g>
<g clip-path="url(#clip29_75_971)">
<path d="M200 25H250" stroke="#526077" stroke-width="6" stroke-linecap="round"/>
<path d="M250 75H300" stroke="#526077" stroke-width="6" stroke-linecap="round"/>
<path d="M250 0V100" stroke="#526077" stroke-width="6" stroke-linecap="round"/>
</g>
<g clip-path="url(#clip30_75_971)">
<path d="M300 25H350" stroke="#526077" stroke-width="6" stroke-linecap="round"/>
<path d="M350 75H400" stroke="#526077" stroke-width="6" stroke-linecap="round"/>
<path d="M350 0V100" stroke="#526077" stroke-width="6" stroke-linecap="round"/>
</g>
<g clip-path="url(#clip31_75_971)">
<path d="M400 25H450" stroke="#526077" stroke-width="6" stroke-linecap="round"/>
</g>
<g clip-path="url(#clip32_75_971)">
<path d="M0 125H50" stroke="#526077" stroke-width="6" stroke-linecap="round"/>
<path d="M50 175H100" stroke="#526077" stroke-width="6" stroke-linecap="round"/>
<path d="M50 100V200" stroke="#526077" stroke-width="6" stroke-linecap="round"/>
</g>
<g clip-path="url(#clip33_75_971)">
<path d="M100 125H150" stroke="#526077" stroke-width="6" stroke-linecap="round"/>
<path d="M150 175H200" stroke="#526077" stroke-width="6" stroke-linecap="round"/>
<path d="M150 100V200" stroke="#526077" stroke-width="6" stroke-linecap="round"/>
</g>
<g clip-path="url(#clip34_75_971)">
<path d="M200 125H250" stroke="#526077" stroke-width="6" stroke-linecap="round"/>
<path d="M250 175H300" stroke="#526077" stroke-width="6" stroke-linecap="round"/>
<path d="M250 100V200" stroke="#526077" stroke-width="6" stroke-linecap="round"/>
</g>
<g clip-path="url(#clip35_75_971)">
<path d="M300 125H350" stroke="#526077" stroke-width="6" stroke-linecap="round"/>
<path d="M350 175H400" stroke="#526077" stroke-width="6" stroke-linecap="round"/>
<path d="M350 100V200" stroke="#526077" stroke-width="6" stroke-linecap="round"/>
</g>
<g clip-path="url(#clip36_75_971)">
<path d="M400 125H450" stroke="#526077" stroke-width="6" stroke-linecap="round"/>
</g>
<g clip-path="url(#clip37_75_971)">
<path d="M0 225H50" stroke="#526077" stroke-width="6" stroke-linecap="round"/>
<path d="M50 275H100" stroke="#526077" stroke-width="6" stroke-linecap="round"/>
<path d="M50 200V300" stroke="#526077" stroke-width="6" stroke-linecap="round"/>
</g>
<g clip-path="url(#clip38_75_971)">
<path d="M100 225H150" stroke="#526077" stroke-width="6" stroke-linecap="round"/>
<path d="M150 275H200" stroke="#526077" stroke-width="6" stroke-linecap="round"/>
<path d="M150 200V300" stroke="#526077" stroke-width="6" stroke-linecap="round"/>
</g>
<g clip-path="url(#clip39_75_971)">
<path d="M200 225H250" stroke="#526077" stroke-width="6" stroke-linecap="round"/>
<path d="M250 275H300" stroke="#526077" stroke-width="6" stroke-linecap="round"/>
<path d="M250 200V300" stroke="#526077" stroke-width="6" stroke-linecap="round"/>
</g>
<g clip-path="url(#clip40_75_971)">
<path d="M300 225H350" stroke="#526077" stroke-width="6" stroke-linecap="round"/>
<path d="M350 275H400" stroke="#526077" stroke-width="6" stroke-linecap="round"/>
<path d="M350 200V300" stroke="#526077" stroke-width="6" stroke-linecap="round"/>
</g>
<g clip-path="url(#clip41_75_971)">
<path d="M400 225H450" stroke="#526077" stroke-width="6" stroke-linecap="round"/>
</g>
<g clip-path="url(#clip42_75_971)">
<path d="M0 325H50" stroke="#526077" stroke-width="6" stroke-linecap="round"/>
<path d="M50 375H100" stroke="#526077" stroke-width="6" stroke-linecap="round"/>
<path d="M50 300V400" stroke="#526077" stroke-width="6" stroke-linecap="round"/>
</g>
<g clip-path="url(#clip43_75_971)">
<path d="M100 325H150" stroke="#526077" stroke-width="6" stroke-linecap="round"/>
<path d="M150 375H200" stroke="#526077" stroke-width="6" stroke-linecap="round"/>
<path d="M150 300V400" stroke="#526077" stroke-width="6" stroke-linecap="round"/>
</g>
<g clip-path="url(#clip44_75_971)">
<path d="M200 325H250" stroke="#526077" stroke-width="6" stroke-linecap="round"/>
<path d="M250 375H300" stroke="#526077" stroke-width="6" stroke-linecap="round"/>
<path d="M250 300V400" stroke="#526077" stroke-width="6" stroke-linecap="round"/>
</g>
<g clip-path="url(#clip45_75_971)">
<path d="M300 325H350" stroke="#526077" stroke-width="6" stroke-linecap="round"/>
<path d="M350 375H400" stroke="#526077" stroke-width="6" stroke-linecap="round"/>
<path d="M350 300V400" stroke="#526077" stroke-width="6" stroke-linecap="round"/>
</g>
<g clip-path="url(#clip46_75_971)">
<path d="M400 325H450" stroke="#526077" stroke-width="6" stroke-linecap="round"/>
</g>
<g clip-path="url(#clip47_75_971)">
<path d="M0 425H50" stroke="#526077" stroke-width="6" stroke-linecap="round"/>
<path d="M50 475H100" stroke="#526077" stroke-width="6" stroke-linecap="round"/>
<path d="M50 400V500" stroke="#526077" stroke-width="6" stroke-linecap="round"/>
</g>
<g clip-path="url(#clip48_75_971)">
<path d="M100 425H150" stroke="#526077" stroke-width="6" stroke-linecap="round"/>
<path d="M150 475H200" stroke="#526077" stroke-width="6" stroke-linecap="round"/>
<path d="M150 400V500" stroke="#526077" stroke-width="6" stroke-linecap="round"/>
</g>
<g clip-path="url(#clip49_75_971)">
<path d="M200 425H250" stroke="#526077" stroke-width="6" stroke-linecap="round"/>
<path d="M250 475H300" stroke="#526077" stroke-width="6" stroke-linecap="round"/>
<path d="M250 400V500" stroke="#526077" stroke-width="6" stroke-linecap="round"/>
</g>
<g clip-path="url(#clip50_75_971)">
<path d="M300 425H350" stroke="#526077" stroke-width="6" stroke-linecap="round"/>
<path d="M350 475H400" stroke="#526077" stroke-width="6" stroke-linecap="round"/>
<path d="M350 400V500" stroke="#526077" stroke-width="6" stroke-linecap="round"/>
</g>
<g clip-path="url(#clip51_75_971)">
<path d="M400 425H450" stroke="#526077" stroke-width="6" stroke-linecap="round"/>
</g>
</g>
</g>
<defs>
<clipPath id="clip0_75_971">
<rect width="440" height="456" fill="white" transform="translate(0 500)"/>
</clipPath>
<clipPath id="clip1_75_971">
<rect width="100" height="100" fill="white" transform="translate(0 500)"/>
</clipPath>
<clipPath id="clip2_75_971">
<rect width="100" height="100" fill="white" transform="translate(100 500)"/>
</clipPath>
<clipPath id="clip3_75_971">
<rect width="100" height="100" fill="white" transform="translate(200 500)"/>
</clipPath>
<clipPath id="clip4_75_971">
<rect width="100" height="100" fill="white" transform="translate(300 500)"/>
</clipPath>
<clipPath id="clip5_75_971">
<rect width="100" height="100" fill="white" transform="translate(400 500)"/>
</clipPath>
<clipPath id="clip6_75_971">
<rect width="100" height="100" fill="white" transform="translate(0 600)"/>
</clipPath>
<clipPath id="clip7_75_971">
<rect width="100" height="100" fill="white" transform="translate(100 600)"/>
</clipPath>
<clipPath id="clip8_75_971">
<rect width="100" height="100" fill="white" transform="translate(200 600)"/>
</clipPath>
<clipPath id="clip9_75_971">
<rect width="100" height="100" fill="white" transform="translate(300 600)"/>
</clipPath>
<clipPath id="clip10_75_971">
<rect width="100" height="100" fill="white" transform="translate(400 600)"/>
</clipPath>
<clipPath id="clip11_75_971">
<rect width="100" height="100" fill="white" transform="translate(0 700)"/>
</clipPath>
<clipPath id="clip12_75_971">
<rect width="100" height="100" fill="white" transform="translate(100 700)"/>
</clipPath>
<clipPath id="clip13_75_971">
<rect width="100" height="100" fill="white" transform="translate(200 700)"/>
</clipPath>
<clipPath id="clip14_75_971">
<rect width="100" height="100" fill="white" transform="translate(300 700)"/>
</clipPath>
<clipPath id="clip15_75_971">
<rect width="100" height="100" fill="white" transform="translate(400 700)"/>
</clipPath>
<clipPath id="clip16_75_971">
<rect width="100" height="100" fill="white" transform="translate(0 800)"/>
</clipPath>
<clipPath id="clip17_75_971">
<rect width="100" height="100" fill="white" transform="translate(100 800)"/>
</clipPath>
<clipPath id="clip18_75_971">
<rect width="100" height="100" fill="white" transform="translate(200 800)"/>
</clipPath>
<clipPath id="clip19_75_971">
<rect width="100" height="100" fill="white" transform="translate(300 800)"/>
</clipPath>
<clipPath id="clip20_75_971">
<rect width="100" height="100" fill="white" transform="translate(400 800)"/>
</clipPath>
<clipPath id="clip21_75_971">
<rect width="100" height="100" fill="white" transform="translate(0 900)"/>
</clipPath>
<clipPath id="clip22_75_971">
<rect width="100" height="100" fill="white" transform="translate(100 900)"/>
</clipPath>
<clipPath id="clip23_75_971">
<rect width="100" height="100" fill="white" transform="translate(200 900)"/>
</clipPath>
<clipPath id="clip24_75_971">
<rect width="100" height="100" fill="white" transform="translate(300 900)"/>
</clipPath>
<clipPath id="clip25_75_971">
<rect width="100" height="100" fill="white" transform="translate(400 900)"/>
</clipPath>
<clipPath id="clip26_75_971">
<rect width="440" height="500" fill="white"/>
</clipPath>
<clipPath id="clip27_75_971">
<rect width="100" height="100" fill="white"/>
</clipPath>
<clipPath id="clip28_75_971">
<rect width="100" height="100" fill="white" transform="translate(100)"/>
</clipPath>
<clipPath id="clip29_75_971">
<rect width="100" height="100" fill="white" transform="translate(200)"/>
</clipPath>
<clipPath id="clip30_75_971">
<rect width="100" height="100" fill="white" transform="translate(300)"/>
</clipPath>
<clipPath id="clip31_75_971">
<rect width="100" height="100" fill="white" transform="translate(400)"/>
</clipPath>
<clipPath id="clip32_75_971">
<rect width="100" height="100" fill="white" transform="translate(0 100)"/>
</clipPath>
<clipPath id="clip33_75_971">
<rect width="100" height="100" fill="white" transform="translate(100 100)"/>
</clipPath>
<clipPath id="clip34_75_971">
<rect width="100" height="100" fill="white" transform="translate(200 100)"/>
</clipPath>
<clipPath id="clip35_75_971">
<rect width="100" height="100" fill="white" transform="translate(300 100)"/>
</clipPath>
<clipPath id="clip36_75_971">
<rect width="100" height="100" fill="white" transform="translate(400 100)"/>
</clipPath>
<clipPath id="clip37_75_971">
<rect width="100" height="100" fill="white" transform="translate(0 200)"/>
</clipPath>
<clipPath id="clip38_75_971">
<rect width="100" height="100" fill="white" transform="translate(100 200)"/>
</clipPath>
<clipPath id="clip39_75_971">
<rect width="100" height="100" fill="white" transform="translate(200 200)"/>
</clipPath>
<clipPath id="clip40_75_971">
<rect width="100" height="100" fill="white" transform="translate(300 200)"/>
</clipPath>
<clipPath id="clip41_75_971">
<rect width="100" height="100" fill="white" transform="translate(400 200)"/>
</clipPath>
<clipPath id="clip42_75_971">
<rect width="100" height="100" fill="white" transform="translate(0 300)"/>
</clipPath>
<clipPath id="clip43_75_971">
<rect width="100" height="100" fill="white" transform="translate(100 300)"/>
</clipPath>
<clipPath id="clip44_75_971">
<rect width="100" height="100" fill="white" transform="translate(200 300)"/>
</clipPath>
<clipPath id="clip45_75_971">
<rect width="100" height="100" fill="white" transform="translate(300 300)"/>
</clipPath>
<clipPath id="clip46_75_971">
<rect width="100" height="100" fill="white" transform="translate(400 300)"/>
</clipPath>
<clipPath id="clip47_75_971">
<rect width="100" height="100" fill="white" transform="translate(0 400)"/>
</clipPath>
<clipPath id="clip48_75_971">
<rect width="100" height="100" fill="white" transform="translate(100 400)"/>
</clipPath>
<clipPath id="clip49_75_971">
<rect width="100" height="100" fill="white" transform="translate(200 400)"/>
</clipPath>
<clipPath id="clip50_75_971">
<rect width="100" height="100" fill="white" transform="translate(300 400)"/>
</clipPath>
<clipPath id="clip51_75_971">
<rect width="100" height="100" fill="white" transform="translate(400 400)"/>
</clipPath>
</defs>
</svg>
