<svg width="800" height="800" viewBox="0 0 800 800" fill="none" xmlns="http://www.w3.org/2000/svg">
<path fill-rule="evenodd" clip-rule="evenodd" d="M466.667 733.333H333.334C207.626 733.333 144.772 733.333 105.719 694.28C66.667 655.23 66.667 592.373 66.667 466.667V333.333C66.667 207.625 66.667 144.772 105.719 105.719C144.772 66.6667 207.957 66.6667 334.327 66.6667C354.527 66.6667 370.714 66.6667 384.334 67.222C383.887 69.8864 383.65 72.6044 383.64 75.3524L383.334 169.832C383.33 206.402 383.327 238.721 386.83 264.772C390.627 293.009 399.344 321.242 422.387 344.283C445.427 367.327 473.66 376.043 501.897 379.84C527.95 383.343 560.267 383.34 596.837 383.337H600H731.914C733.334 401.147 733.334 423.003 733.334 452.097V466.667C733.334 592.373 733.334 655.23 694.28 694.28C655.23 733.333 592.374 733.333 466.667 733.333ZM175 483.333C175 469.527 186.193 458.333 200 458.333H466.667C480.474 458.333 491.667 469.527 491.667 483.333C491.667 497.14 480.474 508.333 466.667 508.333H200C186.193 508.333 175 497.14 175 483.333ZM175 600C175 586.193 186.193 575 200 575H383.334C397.14 575 408.334 586.193 408.334 600C408.334 613.807 397.14 625 383.334 625H200C186.193 625 175 613.807 175 600Z" fill="#1C274C"/>
<path d="M645.057 253.888L513.097 135.125C475.504 101.289 456.707 84.3714 433.64 75.5207L433.333 166.67C433.333 245.238 433.333 284.521 457.74 308.929C482.15 333.337 521.433 333.337 600 333.337H719.337C707.25 309.863 685.613 290.388 645.057 253.888Z" fill="#1C274C"/>
</svg>
