<svg width="32" height="32" viewBox="0 0 32 32" fill="none" xmlns="http://www.w3.org/2000/svg">
<path d="M11.6667 28.667C11.6667 29.2193 12.1145 29.667 12.6667 29.667C13.219 29.667 13.6667 29.2193 13.6667 28.667H11.6667ZM18.3334 28.667C18.3334 29.2193 18.7811 29.667 19.3334 29.667C19.8857 29.667 20.3334 29.2193 20.3334 28.667H18.3334ZM16.6667 28.3337H15.3334V30.3337H16.6667V28.3337ZM5.66675 18.667V14.667H3.66675V18.667H5.66675ZM26.3334 14.667V18.667H28.3334V14.667H26.3334ZM15.3334 28.3337C12.791 28.3337 10.9848 28.3315 9.61455 28.1473C8.27309 27.967 7.50023 27.6287 6.93595 27.0645L5.52174 28.4787C6.51956 29.4765 7.78481 29.9193 9.34805 30.1295C10.8825 30.3358 12.8475 30.3337 15.3334 30.3337V28.3337ZM3.66675 18.667C3.66675 21.1529 3.66463 23.1179 3.87092 24.6523C4.0811 26.2155 4.52392 27.4809 5.52174 28.4787L6.93595 27.0645C6.37167 26.5002 6.03344 25.7273 5.8531 24.3859C5.66887 23.0157 5.66675 21.2094 5.66675 18.667H3.66675ZM16.6667 30.3337C19.1526 30.3337 21.1177 30.3358 22.6521 30.1295C24.2153 29.9193 25.4806 29.4765 26.4785 28.4787L25.0642 27.0645C24.4999 27.6287 23.727 27.967 22.3857 28.1473C21.0154 28.3315 19.2091 28.3337 16.6667 28.3337V30.3337ZM26.3334 18.667C26.3334 21.2094 26.3313 23.0157 26.147 24.3859C25.9667 25.7273 25.6285 26.5002 25.0642 27.0645L26.4785 28.4787C27.4762 27.4809 27.919 26.2155 28.1293 24.6523C28.3355 23.1179 28.3334 21.1529 28.3334 18.667H26.3334ZM13.6667 28.667V24.667H11.6667V28.667H13.6667ZM18.3334 24.667V28.667H20.3334V24.667H18.3334ZM16.0001 22.3337C16.6415 22.3337 17.0558 22.3346 17.3698 22.3631C17.6699 22.3903 17.7789 22.4362 17.8334 22.4677L18.8334 20.7355C18.4238 20.4991 17.9891 20.411 17.5503 20.3713C17.1251 20.3327 16.6047 20.3337 16.0001 20.3337V22.3337ZM20.3334 24.667C20.3334 24.0623 20.3343 23.5419 20.2958 23.1167C20.2561 22.6779 20.1679 22.2433 19.9315 21.8337L18.1994 22.8337C18.2309 22.8882 18.2767 22.9971 18.3039 23.2973C18.3325 23.6113 18.3334 24.0255 18.3334 24.667H20.3334ZM17.8334 22.4677C17.9854 22.5554 18.1117 22.6817 18.1994 22.8337L19.9315 21.8337C19.6682 21.3777 19.2894 20.9989 18.8334 20.7355L17.8334 22.4677ZM13.6667 24.667C13.6667 24.0255 13.6677 23.6113 13.6962 23.2973C13.7234 22.9971 13.7693 22.8882 13.8007 22.8337L12.0687 21.8337C11.8322 22.2433 11.7441 22.6779 11.7043 23.1167C11.6658 23.5419 11.6667 24.0623 11.6667 24.667H13.6667ZM16.0001 20.3337C15.3954 20.3337 14.875 20.3327 14.4498 20.3713C14.011 20.411 13.5763 20.4991 13.1667 20.7355L14.1667 22.4677C14.2213 22.4362 14.3302 22.3903 14.6303 22.3631C14.9443 22.3346 15.3586 22.3337 16.0001 22.3337V20.3337ZM13.8007 22.8337C13.8885 22.6817 14.0147 22.5554 14.1667 22.4677L13.1667 20.7355C12.7107 20.9989 12.332 21.3777 12.0687 21.8337L13.8007 22.8337Z" fill="#526077"/>
<path d="M7.5 27.5L11.5 28.5L12 23L13 21L14 20.5L16.5 20L20 21.5L20.5 28H23L25 27L26 24.5V22V17L20.5 15L15 17L12 15C11.6667 15.5 10.7 16.2 9.5 17C7.9 17 6.16667 16.8333 5.5 16.5L6 25.5L7.5 27.5Z" fill="#526077" stroke="#526077"/>
<path d="M12.6667 2.66699H19.3333L20.2024 11.3568C20.4509 13.843 18.4987 16.0003 16 16.0003C13.5015 16.0003 11.5491 13.843 11.7977 11.3568L12.6667 2.66699Z" fill="#526077" stroke="white" stroke-width="2"/>
<path d="M4.43959 7.13543C4.67703 5.94823 4.79575 5.35463 5.03713 4.87345C5.54576 3.85951 6.46097 3.10923 7.55496 2.80933C8.07415 2.66699 8.67951 2.66699 9.8902 2.66699H12.6666L11.7006 12.3274C11.4921 14.4125 9.73749 16.0003 7.64199 16.0003C5.06805 16.0003 3.13757 13.6455 3.64236 11.1216L4.43959 7.13543Z" fill="#526077" stroke="white" stroke-width="2"/>
<path d="M27.5603 7.13543C27.3229 5.94823 27.2041 5.35463 26.9627 4.87345C26.4541 3.85951 25.5389 3.10923 24.4449 2.80933C23.9257 2.66699 23.3203 2.66699 22.1097 2.66699H19.3333L20.2993 12.3274C20.5078 14.4125 22.2623 16.0003 24.3579 16.0003C26.9318 16.0003 28.8623 13.6455 28.3575 11.1216L27.5603 7.13543Z" fill="#526077" stroke="white" stroke-width="2"/>
</svg>
