<svg width="32" height="32" viewBox="0 0 32 32" fill="none" xmlns="http://www.w3.org/2000/svg">
<path d="M11.666 28.667C11.666 29.2193 12.1137 29.667 12.666 29.667C13.2183 29.667 13.666 29.2193 13.666 28.667H11.666ZM18.3327 28.667C18.3327 29.2193 18.7804 29.667 19.3327 29.667C19.8849 29.667 20.3327 29.2193 20.3327 28.667H18.3327ZM16.666 28.3337H15.3327V30.3337H16.666V28.3337ZM5.66602 18.667V14.667H3.66602V18.667H5.66602ZM26.3327 14.667V18.667H28.3327V14.667H26.3327ZM15.3327 28.3337C12.7903 28.3337 10.984 28.3315 9.61381 28.1473C8.27236 27.967 7.4995 27.6287 6.93522 27.0645L5.521 28.4787C6.51883 29.4765 7.78408 29.9193 9.34732 30.1295C10.8818 30.3358 12.8468 30.3337 15.3327 30.3337V28.3337ZM3.66602 18.667C3.66602 21.1529 3.6639 23.1179 3.87019 24.6523C4.08036 26.2155 4.52319 27.4809 5.521 28.4787L6.93522 27.0645C6.37094 26.5002 6.03271 25.7273 5.85236 24.3859C5.66814 23.0157 5.66602 21.2094 5.66602 18.667H3.66602ZM16.666 30.3337C19.1519 30.3337 21.1169 30.3358 22.6513 30.1295C24.2145 29.9193 25.4799 29.4765 26.4777 28.4787L25.0635 27.0645C24.4992 27.6287 23.7263 27.967 22.3849 28.1473C21.0147 28.3315 19.2084 28.3337 16.666 28.3337V30.3337ZM26.3327 18.667C26.3327 21.2094 26.3305 23.0157 26.1463 24.3859C25.966 25.7273 25.6277 26.5002 25.0635 27.0645L26.4777 28.4787C27.4755 27.4809 27.9183 26.2155 28.1285 24.6523C28.3348 23.1179 28.3327 21.1529 28.3327 18.667H26.3327ZM13.666 28.667V24.667H11.666V28.667H13.666ZM18.3327 24.667V28.667H20.3327V24.667H18.3327ZM15.9993 22.3337C16.6408 22.3337 17.0551 22.3346 17.3691 22.3631C17.6692 22.3903 17.7781 22.4362 17.8327 22.4677L18.8327 20.7355C18.4231 20.4991 17.9884 20.411 17.5496 20.3713C17.1244 20.3327 16.604 20.3337 15.9993 20.3337V22.3337ZM20.3327 24.667C20.3327 24.0623 20.3336 23.5419 20.2951 23.1167C20.2553 22.6779 20.1672 22.2433 19.9308 21.8337L18.1987 22.8337C18.2301 22.8882 18.276 22.9971 18.3032 23.2973C18.3317 23.6113 18.3327 24.0255 18.3327 24.667H20.3327ZM17.8327 22.4677C17.9847 22.5554 18.1109 22.6817 18.1987 22.8337L19.9308 21.8337C19.6675 21.3777 19.2887 20.9989 18.8327 20.7355L17.8327 22.4677ZM13.666 24.667C13.666 24.0255 13.6669 23.6113 13.6955 23.2973C13.7227 22.9971 13.7685 22.8882 13.8 22.8337L12.0679 21.8337C11.8314 22.2433 11.7434 22.6779 11.7036 23.1167C11.6651 23.5419 11.666 24.0623 11.666 24.667H13.666ZM15.9993 20.3337C15.3947 20.3337 14.8743 20.3327 14.4491 20.3713C14.0103 20.411 13.5756 20.4991 13.166 20.7355L14.166 22.4677C14.2205 22.4362 14.3295 22.3903 14.6296 22.3631C14.9436 22.3346 15.3579 22.3337 15.9993 22.3337V20.3337ZM13.8 22.8337C13.8877 22.6817 14.014 22.5554 14.166 22.4677L13.166 20.7355C12.71 20.9989 12.3312 21.3777 12.0679 21.8337L13.8 22.8337Z" fill="#98ADD0"/>
<path d="M7.5 27.5L11.5 28.5L12 23L13 21L14 20.5L16.5 20L20 21.5L20.5 28H23L25 27L26 24.5V22V17L20.5 15L15 17L12 15C11.6667 15.5 10.7 16.2 9.5 17C7.9 17 6.16667 16.8333 5.5 16.5L6 25.5L7.5 27.5Z" fill="#98ADD0" stroke="#98ADD0"/>
<path d="M12.6657 2.66699H19.3324L20.2014 11.3568C20.45 13.843 18.4977 16.0003 15.999 16.0003C13.5005 16.0003 11.5481 13.843 11.7968 11.3568L12.6657 2.66699Z" fill="#98ADD0" stroke="#2C2C2C" stroke-width="2"/>
<path d="M4.44032 7.13543C4.67776 5.94823 4.79648 5.35463 5.03787 4.87345C5.54649 3.85951 6.46171 3.10923 7.55569 2.80933C8.07488 2.66699 8.68024 2.66699 9.89093 2.66699H12.6673L11.7013 12.3274C11.4928 14.4125 9.73823 16.0003 7.64272 16.0003C5.06879 16.0003 3.13831 13.6455 3.64309 11.1216L4.44032 7.13543Z" fill="#98ADD0" stroke="#2C2C2C" stroke-width="2"/>
<path d="M27.5611 7.13543C27.3236 5.94823 27.2048 5.35463 26.9635 4.87345C26.4548 3.85951 25.5396 3.10923 24.4456 2.80933C23.9264 2.66699 23.3211 2.66699 22.1104 2.66699H19.334L20.3 12.3274C20.5085 14.4125 22.2631 16.0003 24.3587 16.0003C26.9325 16.0003 28.8631 13.6455 28.3583 11.1216L27.5611 7.13543Z" fill="#98ADD0" stroke="#2C2C2C" stroke-width="2"/>
</svg>
