<svg width="16" height="16" viewBox="0 0 16 16" fill="none" xmlns="http://www.w3.org/2000/svg">
<path d="M2.57588 10.9701C2.00391 8.68227 1.71793 7.53833 2.31849 6.7692C2.91904 6 4.09818 6 6.45645 6H9.54357C11.9018 6 13.081 6 13.6815 6.7692C14.2821 7.53833 13.9961 8.68227 13.4242 10.9701C13.0604 12.4253 12.8784 13.1528 12.336 13.5764C11.7934 14 11.0435 14 9.54357 14H6.45645C4.95655 14 4.20659 14 3.66407 13.5764C3.12155 13.1528 2.93966 12.4253 2.57588 10.9701Z" stroke="#F6F7F9"/>
<path d="M13 6.33366L12.5264 4.59676C12.3438 3.92703 12.2525 3.59216 12.0652 3.33997C11.8787 3.08881 11.6252 2.89522 11.3339 2.78134C11.0413 2.66699 10.6942 2.66699 10 2.66699M3 6.33366L3.4736 4.59676C3.65621 3.92703 3.74752 3.59216 3.93481 3.33997C4.12133 3.08881 4.37477 2.89522 4.66615 2.78134C4.95872 2.66699 5.30581 2.66699 6 2.66699" stroke="#F6F7F9"/>
<path d="M6 2.66667C6 2.29848 6.29848 2 6.66667 2H9.33333C9.70153 2 10 2.29848 10 2.66667C10 3.03485 9.70153 3.33333 9.33333 3.33333H6.66667C6.29848 3.33333 6 3.03485 6 2.66667Z" stroke="#F6F7F9"/>
</svg>
