<svg width="16" height="16" viewBox="0 0 16 16" fill="none" xmlns="http://www.w3.org/2000/svg">
<path d="M7.63965 4.01376C7.73392 4.11169 7.86398 4.16703 7.99992 4.16703C8.13585 4.16703 8.26592 4.11169 8.36018 4.01376C9.73212 2.58833 11.1759 2.45826 12.2503 2.9494C13.3563 3.45495 14.1666 4.65743 14.1666 6.09134C14.1666 7.55627 13.5671 8.68541 12.7077 9.65314C11.9994 10.4507 11.1421 11.1117 10.3059 11.7563C10.1073 11.9094 9.90987 12.0616 9.71592 12.2145C9.36518 12.491 9.05239 12.7336 8.75085 12.9098C8.44918 13.0861 8.20632 13.1666 7.99992 13.1666C7.79352 13.1666 7.55065 13.0861 7.24898 12.9098C6.94745 12.7336 6.63464 12.491 6.28395 12.2145C6.09004 12.0617 5.89265 11.9095 5.69407 11.7564C4.85785 11.1117 4.00042 10.4507 3.29211 9.65314C2.43273 8.68541 1.83325 7.55627 1.83325 6.09134C1.83325 4.65743 2.6435 3.45495 3.74949 2.9494C4.82397 2.45826 6.26769 2.58833 7.63965 4.01376ZM0.833252 6.09134C0.833252 7.86834 1.57359 9.22401 2.5444 10.3171C3.32178 11.1925 4.27325 11.9251 5.11361 12.5722C5.30418 12.7189 5.48905 12.8613 5.66487 12.9999C6.00635 13.2691 6.37295 13.5561 6.74445 13.7732C7.11585 13.9902 7.53965 14.1666 7.99992 14.1666C8.46018 14.1666 8.88398 13.9902 9.25538 13.7732C9.62692 13.5561 9.99345 13.2691 10.335 12.9999C10.5109 12.8612 10.6958 12.7188 10.8865 12.572C11.7268 11.925 12.6782 11.1924 13.4555 10.3171C14.4263 9.22401 15.1666 7.86834 15.1666 6.09134C15.1666 4.28329 14.1435 2.71522 12.6661 2.03991C11.2673 1.40052 9.5413 1.59343 7.99992 2.97247C6.45854 1.59343 4.73255 1.40052 3.33376 2.03991C1.85639 2.71522 0.833252 4.28329 0.833252 6.09134Z" fill="#526077"/>
<path d="M7.63965 4.01376C7.73392 4.11169 7.86398 4.16703 7.99992 4.16703C8.13585 4.16703 8.26592 4.11169 8.36018 4.01376C9.73212 2.58833 11.1759 2.45826 12.2503 2.9494C13.3563 3.45495 14.1666 4.65743 14.1666 6.09134C14.1666 7.55627 13.5671 8.68541 12.7077 9.65314C11.9994 10.4507 11.1421 11.1117 10.3059 11.7563C10.1073 11.9094 9.90987 12.0616 9.71592 12.2145C9.36518 12.491 9.05239 12.7336 8.75085 12.9098C8.44918 13.0861 8.20632 13.1666 7.99992 13.1666C7.79352 13.1666 7.55065 13.0861 7.24898 12.9098C6.94745 12.7336 6.63464 12.491 6.28395 12.2145C6.09004 12.0617 5.89265 11.9095 5.69407 11.7564C4.85785 11.1117 4.00042 10.4507 3.29211 9.65314C2.43273 8.68541 1.83325 7.55627 1.83325 6.09134C1.83325 4.65743 2.6435 3.45495 3.74949 2.9494C4.82397 2.45826 6.26769 2.58833 7.63965 4.01376ZM0.833252 6.09134C0.833252 7.86834 1.57359 9.22401 2.5444 10.3171C3.32178 11.1925 4.27325 11.9251 5.11361 12.5722C5.30418 12.7189 5.48905 12.8613 5.66487 12.9999C6.00635 13.2691 6.37295 13.5561 6.74445 13.7732C7.11585 13.9902 7.53965 14.1666 7.99992 14.1666C8.46018 14.1666 8.88398 13.9902 9.25538 13.7732C9.62692 13.5561 9.99345 13.2691 10.335 12.9999C10.5109 12.8612 10.6958 12.7188 10.8865 12.572C11.7268 11.925 12.6782 11.1924 13.4555 10.3171C14.4263 9.22401 15.1666 7.86834 15.1666 6.09134C15.1666 4.28329 14.1435 2.71522 12.6661 2.03991C11.2673 1.40052 9.5413 1.59343 7.99992 2.97247C6.45854 1.59343 4.73255 1.40052 3.33376 2.03991C1.85639 2.71522 0.833252 4.28329 0.833252 6.09134Z" stroke="black"/>
</svg>
