<svg width="20" height="20" viewBox="0 0 20 20" fill="none" xmlns="http://www.w3.org/2000/svg">
<path d="M12.4985 14.1668C12.4884 15.9794 12.4081 16.9609 11.7678 17.6013C11.0355 18.3335 9.85699 18.3335 7.49999 18.3335H6.66666C4.30966 18.3335 3.13108 18.3335 2.39891 17.6013C1.66666 16.869 1.66666 15.6905 1.66666 13.3335L1.66666 6.66683C1.66666 4.30983 1.66666 3.13133 2.39891 2.39908C3.13108 1.66683 4.30966 1.66683 6.66666 1.66683H7.49999C9.85699 1.66683 11.0355 1.66683 11.7678 2.39908C12.4081 3.03942 12.4884 4.021 12.4985 5.8335" stroke="#F65C51" stroke-width="1.25" stroke-linecap="round"/>
<path d="M7.50016 10L18.3335 10M18.3335 10L15.4168 12.5M18.3335 10L15.4168 7.5" stroke="#F65C51" stroke-width="1.25" stroke-linecap="round" stroke-linejoin="round"/>
</svg>
