<svg width="20" height="20" viewBox="0 0 20 20" fill="none" xmlns="http://www.w3.org/2000/svg">
<path fill-rule="evenodd" clip-rule="evenodd" d="M10.0002 1.66699C6.31826 1.66699 3.3335 4.70523 3.3335 8.45308C3.3335 12.1716 5.46126 16.5107 8.78108 18.0623C9.55491 18.4241 10.4454 18.4241 11.2192 18.0623C14.5391 16.5107 16.6668 12.1716 16.6668 8.45308C16.6668 4.70523 13.6821 1.66699 10.0002 1.66699ZM8.12528 8.33343C8.12528 7.29789 8.96475 6.45843 10.0003 6.45843C11.0358 6.45843 11.8753 7.29789 11.8753 8.33343C11.8753 9.36896 11.0358 10.2084 10.0003 10.2084C8.96475 10.2084 8.12528 9.36896 8.12528 8.33343ZM10.0003 5.20843C8.27439 5.20843 6.87528 6.60754 6.87528 8.33343C6.87528 10.0593 8.27439 11.4584 10.0003 11.4584C11.7262 11.4584 13.1253 10.0593 13.1253 8.33343C13.1253 6.60754 11.7262 5.20843 10.0003 5.20843Z" fill="#F65C51"/>
</svg>
