<svg width="40" height="40" viewBox="0 0 40 40" fill="none" xmlns="http://www.w3.org/2000/svg">
<path d="M33.3332 31.6663L34.217 32.5502C34.7052 32.062 34.7052 31.2707 34.217 30.7825L33.3332 31.6663ZM13.3332 7.08301C12.6428 7.08301 12.0832 7.64266 12.0832 8.33301C12.0832 9.02336 12.6428 9.58301 13.3332 9.58301V7.08301ZM30.8837 27.4492C30.3955 26.961 29.6042 26.961 29.116 27.4492C28.6278 27.9373 28.6278 28.7287 29.116 29.2168L30.8837 27.4492ZM29.116 34.1158C28.6278 34.604 28.6278 35.3953 29.116 35.8835C29.6042 36.3717 30.3955 36.3717 30.8837 35.8835L29.116 34.1158ZM33.3332 30.4163H12.4998V32.9163H33.3332V30.4163ZM12.4998 21.2497H27.4998V18.7497H12.4998V21.2497ZM27.4998 7.08301H13.3332V9.58301H27.4998V7.08301ZM34.217 30.7825L30.8837 27.4492L29.116 29.2168L32.4493 32.5502L34.217 30.7825ZM32.4493 30.7825L29.116 34.1158L30.8837 35.8835L34.217 32.5502L32.4493 30.7825ZM34.5832 14.1663C34.5832 10.2543 31.4118 7.08301 27.4998 7.08301V9.58301C30.0312 9.58301 32.0832 11.635 32.0832 14.1663H34.5832ZM27.4998 21.2497C31.4118 21.2497 34.5832 18.0783 34.5832 14.1663H32.0832C32.0832 16.6977 30.0312 18.7497 27.4998 18.7497V21.2497ZM7.9165 25.833C7.9165 23.3017 9.96854 21.2497 12.4998 21.2497V18.7497C8.58782 18.7497 5.4165 21.921 5.4165 25.833H7.9165ZM12.4998 30.4163C9.96854 30.4163 7.9165 28.3643 7.9165 25.833H5.4165C5.4165 29.745 8.58782 32.9163 12.4998 32.9163V30.4163Z" fill="#302F34"/>
<path d="M9.99984 11.6667C11.8408 11.6667 13.3332 10.1743 13.3332 8.33333C13.3332 6.49238 11.8408 5 9.99984 5C8.15889 5 6.6665 6.49238 6.6665 8.33333C6.6665 10.1743 8.15889 11.6667 9.99984 11.6667Z" stroke="#302F34" stroke-width="2.5"/>
</svg>
