<svg width="40" height="40" viewBox="0 0 40 40" fill="none" xmlns="http://www.w3.org/2000/svg">
<path d="M3.3335 19.9997C3.3335 12.1429 3.3335 8.21456 5.77428 5.77379C8.21505 3.33301 12.1434 3.33301 20.0002 3.33301C27.8568 3.33301 31.7853 3.33301 34.226 5.77379C36.6668 8.21456 36.6668 12.1429 36.6668 19.9997" stroke="#302F34" stroke-width="2.5"/>
<path d="M3.3335 23.3333C3.3335 18.6662 3.3335 16.3327 4.24178 14.5501C5.04071 12.9821 6.31556 11.7072 7.88358 10.9083C9.66618 10 11.9997 10 16.6668 10H23.3335C28.0007 10 30.3342 10 32.1168 10.9083C33.6848 11.7072 34.9597 12.9821 35.7585 14.5501C36.6668 16.3327 36.6668 18.6662 36.6668 23.3333C36.6668 28.0005 36.6668 30.334 35.7585 32.1167C34.9597 33.6847 33.6848 34.9595 32.1168 35.7583C30.3342 36.6667 28.0007 36.6667 23.3335 36.6667H16.6668C11.9997 36.6667 9.66618 36.6667 7.88358 35.7583C6.31556 34.9595 5.04071 33.6847 4.24178 32.1167C3.3335 30.334 3.3335 28.0005 3.3335 23.3333Z" stroke="#302F34" stroke-width="2.5"/>
<path d="M20.0002 18.333V28.333M20.0002 28.333L24.1668 24.1663M20.0002 28.333L15.8335 24.1663" stroke="#302F34" stroke-width="2.5" stroke-linecap="round" stroke-linejoin="round"/>
</svg>
