<svg width="24" height="24" viewBox="0 0 24 24" fill="none" xmlns="http://www.w3.org/2000/svg">
<path fill-rule="evenodd" clip-rule="evenodd" d="M6 0C2.68629 0 0 2.68629 0 6V18C0 21.3137 2.68629 24 6 24H18C21.3137 24 24 21.3137 24 18V6C24 2.68629 21.3137 0 18 0H6ZM7.26984 6.08571H7.8305V10.8556C7.8305 11.3302 8.13459 11.5963 8.54321 11.5963C8.95183 11.5963 9.25592 11.3307 9.25592 10.8556V5.44902C9.25592 5.06891 9.02785 4.77433 8.61923 4.77433H7.26984C6.86122 4.77433 6.62365 5.09742 6.62365 5.43002C6.62365 5.75311 6.81371 6.08571 7.26984 6.08571ZM9.61652 15.8551C10.1392 15.5225 10.3958 14.9998 10.3958 14.4016C10.3958 13.6599 9.74006 12.6626 8.37166 12.6631C7.31685 12.6631 6.30006 13.4614 6.30006 14.2021C6.30006 14.5537 6.52812 14.9053 6.91774 14.9053C7.21389 14.9053 7.34836 14.7097 7.49405 14.4978C7.66626 14.2473 7.85413 13.974 8.34315 13.974C8.77078 13.974 9.02735 14.2496 9.02735 14.6107C9.02735 15.1454 8.68057 15.2357 8.3386 15.3247C8.006 15.4113 7.67796 15.4966 7.67796 15.9886C7.67796 16.525 8.04798 16.5805 8.43384 16.6384C8.85423 16.7015 9.29343 16.7673 9.29343 17.461C9.29343 17.9647 8.89431 18.3448 8.40017 18.3448C7.7957 18.3448 7.57972 17.9921 7.39104 17.6841C7.24469 17.4451 7.11476 17.233 6.83271 17.233C6.49061 17.233 6.101 17.499 6.101 17.8691C6.101 18.6199 6.97475 19.6552 8.38116 19.6552C9.73056 19.6552 10.7759 18.6959 10.7759 17.5556C10.7759 16.8053 10.3007 16.1686 9.61652 15.8551ZM17.8244 10.9121C17.8244 10.475 17.5023 10.2849 17.0842 10.2849H15.3452C15.5189 10.0663 15.7234 9.83399 15.9373 9.59094C16.7181 8.70384 17.6254 7.67318 17.6254 6.63637C17.6254 5.43002 16.6846 4.66029 15.5162 4.66029C14.3474 4.66029 13.2831 5.61957 13.2831 6.81692C13.2831 7.18753 13.5207 7.51062 13.9768 7.51062C14.4123 7.51062 14.5208 7.1597 14.6342 6.79295C14.7582 6.39155 14.8882 5.97117 15.4592 5.97117C15.8483 5.97117 16.1434 6.31327 16.1434 6.70289C16.1434 7.04499 15.9819 7.33957 15.8103 7.58665C15.3198 8.29717 14.7677 8.91965 14.2167 9.54095C13.9571 9.83369 13.6977 10.1262 13.4451 10.4275C13.3496 10.5415 13.2266 10.7126 13.2266 10.9121C13.2266 11.3492 13.5492 11.5393 13.9668 11.5393H17.1407C17.5023 11.5393 17.8244 11.3492 17.8244 10.9121ZM12.951 17.4895C12.951 17.7366 13.1506 18.0502 13.6162 18.0502H15.9064V18.8574C15.9064 19.3611 16.1059 19.5991 16.5906 19.5991C17.0752 19.5991 17.2743 19.3611 17.2743 18.8574V18.0502H17.4358C17.8064 18.0502 18.101 17.8031 18.101 17.423C18.101 17.0429 17.8064 16.7958 17.4358 16.7958H17.2743V13.879C17.2743 13.0142 16.7331 12.6626 16.1819 12.6626C15.6878 12.6626 15.4217 12.8337 15.2127 13.2138L13.0845 17.0714C13.0817 17.0761 13.0788 17.0808 13.0759 17.0856C13.0197 17.1779 12.951 17.2908 12.951 17.4895ZM15.8869 14.1451H15.9059L15.9064 16.7958H14.6045L15.8869 14.1451Z" fill="#526077"/>
</svg>
