<svg width="24" height="24" viewBox="0 0 24 24" fill="none" xmlns="http://www.w3.org/2000/svg">
<path d="M11.5 21.2855C5.85 21.2855 1.25 16.9045 1.25 11.5236C1.25 6.14267 5.85 1.76172 11.5 1.76172C17.15 1.76172 21.75 6.14267 21.75 11.5236C21.75 16.9045 17.15 21.2855 11.5 21.2855ZM11.5 3.19029C6.66999 3.19029 2.75 6.93315 2.75 11.5236C2.75 16.1141 6.66999 19.857 11.5 19.857C16.33 19.857 20.25 16.1141 20.25 11.5236C20.25 6.93315 16.33 3.19029 11.5 3.19029Z" fill="#526077"/>
<path d="M21.9999 22.2382C21.81 22.2382 21.6199 22.1715 21.4699 22.0287L19.47 20.1239C19.1799 19.8477 19.1799 19.3905 19.47 19.1144C19.7599 18.8382 20.2399 18.8382 20.5299 19.1144L22.53 21.0191C22.8199 21.2953 22.8199 21.7525 22.53 22.0287C22.38 22.1715 22.1899 22.2382 21.9999 22.2382Z" fill="#526077"/>
</svg>
