<svg width="24" height="24" viewBox="0 0 24 24" fill="none" xmlns="http://www.w3.org/2000/svg">
<path fill-rule="evenodd" clip-rule="evenodd" d="M6 0C2.68629 0 0 2.68629 0 6V18C0 21.3137 2.68629 24 6 24H18C21.3137 24 24 21.3137 24 18V6C24 2.68629 21.3137 0 18 0H6ZM12.9 7.2C12.9 6.70295 12.4971 6.3 12 6.3C11.5029 6.3 11.1 6.70295 11.1 7.2V12C11.1 12.2387 11.1948 12.4676 11.3636 12.6364L14.3636 15.6364C14.7151 15.9879 15.2849 15.9879 15.6364 15.6364C15.9879 15.2849 15.9879 14.7151 15.6364 14.3636L12.9 11.6272V7.2Z" fill="#526077"/>
</svg>
