<svg width="40" height="40" viewBox="0 0 40 40" fill="none" xmlns="http://www.w3.org/2000/svg">
<path d="M34.167 10H5.8335" stroke="white" stroke-width="2.5" stroke-linecap="round"/>
<path d="M31.3887 14.166L30.622 25.6645C30.327 30.0893 30.1795 32.3018 28.7378 33.6505C27.2962 34.9993 25.0788 34.9993 20.6442 34.9993H19.3553C14.9206 34.9993 12.7033 34.9993 11.2616 33.6505C9.81991 32.3018 9.67241 30.0893 9.37741 25.6645L8.61084 14.166" stroke="white" stroke-width="2.5" stroke-linecap="round"/>
<path d="M15.8335 18.334L16.6668 26.6673" stroke="white" stroke-width="2.5" stroke-linecap="round"/>
<path d="M24.1668 18.334L23.3335 26.6673" stroke="white" stroke-width="2.5" stroke-linecap="round"/>
<path d="M10.8335 10C10.9266 10 10.9732 10 11.0154 9.99893C12.3878 9.96415 13.5985 9.09152 14.0655 7.80053C14.0799 7.76082 14.0946 7.71665 14.1241 7.62828L14.2859 7.14285C14.424 6.72847 14.4931 6.52127 14.5847 6.34533C14.9502 5.64345 15.6264 5.15607 16.4078 5.03128C16.6037 5 16.8222 5 17.259 5H22.7413C23.1782 5 23.3967 5 23.5925 5.03128C24.374 5.15607 25.0502 5.64345 25.4157 6.34533C25.5073 6.52127 25.5763 6.72847 25.7145 7.14285L25.8763 7.62828C25.9057 7.71653 25.9205 7.76085 25.9348 7.80053C26.4018 9.09152 27.6125 9.96415 28.985 9.99893C29.0272 10 29.0737 10 29.1668 10" stroke="white" stroke-width="2.5"/>
</svg>
